<svg id="visual" viewBox="0 0 960 540" width="960" height="540" xmlns="http://www.w3.org/2000/svg" xmlns:xlink="http://www.w3.org/1999/xlink" version="1.1"><rect x="0" y="0" width="960" height="540" fill="#000000"></rect><path d="M0 244L22.8 249.7C45.7 255.3 91.3 266.7 137 276.7C182.7 286.7 228.3 295.3 274 300.2C319.7 305 365.3 306 411.2 298C457 290 503 273 548.8 266C594.7 259 640.3 262 686 276C731.7 290 777.3 315 823 313.3C868.7 311.7 914.3 283.3 937.2 269.2L960 255L960 541L937.2 541C914.3 541 868.7 541 823 541C777.3 541 731.7 541 686 541C640.3 541 594.7 541 548.8 541C503 541 457 541 411.2 541C365.3 541 319.7 541 274 541C228.3 541 182.7 541 137 541C91.3 541 45.7 541 22.8 541L0 541Z" fill="#f7770f"></path><path d="M0 321L22.8 317.5C45.7 314 91.3 307 137 310.8C182.7 314.7 228.3 329.3 274 339.2C319.7 349 365.3 354 411.2 348.7C457 343.3 503 327.7 548.8 331.2C594.7 334.7 640.3 357.3 686 354.8C731.7 352.3 777.3 324.7 823 325.8C868.7 327 914.3 357 937.2 372L960 387L960 541L937.2 541C914.3 541 868.7 541 823 541C777.3 541 731.7 541 686 541C640.3 541 594.7 541 548.8 541C503 541 457 541 411.2 541C365.3 541 319.7 541 274 541C228.3 541 182.7 541 137 541C91.3 541 45.7 541 22.8 541L0 541Z" fill="#fd9446"></path><path d="M0 370L22.8 370.8C45.7 371.7 91.3 373.3 137 369.2C182.7 365 228.3 355 274 357.8C319.7 360.7 365.3 376.3 411.2 378.8C457 381.3 503 370.7 548.8 374.5C594.7 378.3 640.3 396.7 686 405C731.7 413.3 777.3 411.7 823 410.7C868.7 409.7 914.3 409.3 937.2 409.2L960 409L960 541L937.2 541C914.3 541 868.7 541 823 541C777.3 541 731.7 541 686 541C640.3 541 594.7 541 548.8 541C503 541 457 541 411.2 541C365.3 541 319.7 541 274 541C228.3 541 182.7 541 137 541C91.3 541 45.7 541 22.8 541L0 541Z" fill="#ffa461"></path><path d="M0 450L22.8 449.7C45.7 449.3 91.3 448.7 137 439.8C182.7 431 228.3 414 274 408.3C319.7 402.7 365.3 408.3 411.2 407.2C457 406 503 398 548.8 402.5C594.7 407 640.3 424 686 425.8C731.7 427.7 777.3 414.3 823 410.5C868.7 406.7 914.3 412.3 937.2 415.2L960 418L960 541L937.2 541C914.3 541 868.7 541 823 541C777.3 541 731.7 541 686 541C640.3 541 594.7 541 548.8 541C503 541 457 541 411.2 541C365.3 541 319.7 541 274 541C228.3 541 182.7 541 137 541C91.3 541 45.7 541 22.8 541L0 541Z" fill="#fd9446"></path><path d="M0 480L22.8 482.7C45.7 485.3 91.3 490.7 137 494.7C182.7 498.7 228.3 501.3 274 493.3C319.7 485.3 365.3 466.7 411.2 461.8C457 457 503 466 548.8 472.5C594.7 479 640.3 483 686 478.5C731.7 474 777.3 461 823 462.2C868.7 463.3 914.3 478.7 937.2 486.3L960 494L960 541L937.2 541C914.3 541 868.7 541 823 541C777.3 541 731.7 541 686 541C640.3 541 594.7 541 548.8 541C503 541 457 541 411.2 541C365.3 541 319.7 541 274 541C228.3 541 182.7 541 137 541C91.3 541 45.7 541 22.8 541L0 541Z" fill="#f7770f"></path></svg>